<svg xmlns="http://www.w3.org/2000/svg" width="16" height="14" viewBox="0 0 2382 2104" version="1.1"><path d="M 168.500 0.606 C 105.890 5.210, 64.272 29.626, 35.349 78.721 C 11.292 119.558, -1.869 186.142, 0.407 255.500 C 3.397 346.617, 24.079 606.819, 41.064 767 C 52.034 870.456, 60.288 925.182, 69.572 956.024 C 125.632 1142.246, 275.116 1259.099, 493.500 1287.413 C 519.691 1290.808, 541.652 1292.200, 577.263 1292.720 C 616.488 1293.294, 641.539 1292.322, 674.899 1288.935 C 685.568 1287.851, 694.455 1287.121, 694.646 1287.313 C 694.837 1287.504, 689.033 1288.883, 681.747 1290.377 C 622.747 1302.474, 555.200 1323.191, 503.563 1345.026 C 484.412 1353.124, 449.058 1370.651, 433 1380.007 C 332.400 1438.626, 275.109 1512.377, 262.364 1599.669 C 259.795 1617.270, 260.019 1650.044, 262.836 1668.500 C 273.676 1739.513, 309.737 1809.049, 373.556 1882 C 389.164 1899.841, 432.266 1942.784, 453.271 1961.419 C 552.139 2049.137, 640.583 2095, 726.440 2103.073 C 744.175 2104.740, 775.786 2103.761, 792 2101.043 C 872.745 2087.504, 944.064 2039.017, 1010.491 1952.500 C 1049.701 1901.432, 1087.825 1834.138, 1121.082 1757.295 C 1138.644 1716.716, 1153.484 1677.639, 1174.136 1617.589 C 1187.489 1578.763, 1188.445 1576.429, 1191 1576.429 C 1193.555 1576.429, 1194.511 1578.763, 1207.864 1617.589 C 1248.385 1735.412, 1281.547 1810.708, 1324.842 1883.191 C 1394.845 2000.388, 1476.021 2072.355, 1564.307 2095.490 C 1585.309 2100.993, 1600.032 2103.069, 1622.611 2103.709 C 1644.358 2104.326, 1660.873 2103.214, 1679.448 2099.884 C 1758.739 2085.669, 1838.823 2041.185, 1928.729 1961.419 C 1948.831 1943.585, 1992.474 1900.205, 2007.121 1883.500 C 2072.258 1809.213, 2108.218 1740.207, 2119.164 1668.500 C 2121.981 1650.044, 2122.205 1617.270, 2119.636 1599.669 C 2102.934 1485.279, 2008.101 1392.679, 1845.500 1331.991 C 1802.250 1315.849, 1746.292 1299.817, 1700.253 1290.377 C 1692.967 1288.883, 1687.163 1287.504, 1687.354 1287.313 C 1687.545 1287.121, 1696.432 1287.851, 1707.101 1288.935 C 1740.461 1292.322, 1765.512 1293.294, 1804.737 1292.720 C 1867.469 1291.804, 1914.316 1285.968, 1968.500 1272.321 C 2143.922 1228.139, 2263.661 1118.019, 2312.428 956.024 C 2321.712 925.182, 2329.966 870.456, 2340.936 767 C 2356.164 623.387, 2375.959 380.515, 2380.058 287 C 2380.673 272.975, 2381.586 260.719, 2382.088 259.764 C 2383.238 257.575, 2383.301 222.696, 2382.154 223.405 C 2381.689 223.692, 2381.026 217.757, 2380.683 210.214 C 2378.425 160.706, 2365.482 110.710, 2346.630 78.677 C 2320.665 34.560, 2283.724 10.106, 2231.371 2.381 C 2218.120 0.426, 2186.993 0.185, 2172 1.921 C 2091.132 11.289, 1998.092 50.645, 1900.500 116.766 C 1741.742 224.328, 1540.101 442.971, 1364.461 698 C 1297.013 795.935, 1233.793 900.588, 1196.371 976.250 C 1193.719 981.612, 1191.302 986, 1191 986 C 1190.698 986, 1188.281 981.612, 1185.629 976.250 C 1116.800 837.087, 984.639 639.436, 852.547 478.117 C 718.573 314.500, 588.135 188.171, 474.926 112.395 C 382.517 50.541, 290.876 11.832, 215 2.604 C 202.061 1.030, 177.241 -0.036, 168.500 0.606 M 0.415 242 C 0.415 252.175, 0.564 256.337, 0.745 251.250 C 0.927 246.162, 0.927 237.837, 0.745 232.750 C 0.564 227.662, 0.415 231.825, 0.415 242" stroke="none" fill="#0085ff" fill-rule="evenodd"/></svg>