<svg xmlns="http://www.w3.org/2000/svg" width="24" height="24" viewBox="0 0 512 512" version="1.1"><path d="M 243.932 53.519 C 220.762 59.146, 156.770 91.527, 78.500 137.231 L 55.500 150.661 51.227 157.581 C 45.840 166.303, 41.643 177.130, 39.447 187.966 C 36.966 200.207, 37.879 220.999, 41.468 234 C 44.348 244.432, 52.593 262.580, 55.596 265.094 C 58.947 267.900, 110.164 297.414, 140 313.733 C 199.489 346.271, 236.372 362.598, 252.957 363.734 C 265.964 364.626, 281.328 359.508, 316.684 342.508 C 356.026 323.591, 453.562 268.915, 457.975 263.304 C 460.707 259.831, 460.738 252.208, 458.034 248.770 C 455.385 245.402, 450.755 243.632, 446.231 244.257 C 444.179 244.541, 437.971 247.471, 432.436 250.769 C 376.080 284.346, 305.897 321.646, 279 332.315 C 261.634 339.205, 262.687 339.204, 260.157 332.321 C 255.940 320.850, 254.643 313.817, 254.658 302.500 C 254.674 290.188, 256.311 282.580, 261.145 272.349 C 264.578 265.083, 266.315 263.941, 286 256.011 C 301.134 249.914, 342.649 229.264, 370.500 213.981 C 383.700 206.738, 408.285 193.903, 425.134 185.460 C 445.200 175.406, 456.499 169.181, 457.884 167.420 C 460.717 163.818, 460.785 156.267, 458.015 152.746 C 453.760 147.337, 366.874 98.403, 323.500 76.988 C 276.037 53.554, 261.474 49.259, 243.932 53.519 M 250.184 77.562 C 228.849 83.303, 169.233 113.284, 104.671 150.738 C 93.765 157.065, 85.215 162.567, 85.671 162.964 C 86.127 163.361, 94.825 168.447, 105 174.266 C 167.416 209.962, 221.135 237.331, 242.666 244.407 L 247.832 246.105 334.415 202.803 C 382.036 178.986, 420.999 159.248, 420.999 158.940 C 421 158.349, 379.838 134.816, 354.500 120.921 C 333.956 109.656, 294.598 90.023, 282.701 85.106 C 273.464 81.288, 257.730 75.921, 256.198 76.066 C 255.814 76.102, 253.108 76.775, 250.184 77.562 M 68.113 178.959 C 62.578 191.825, 61.080 209.493, 64.358 223.237 C 67.042 234.487, 71.821 245.738, 74.814 247.851 C 78.772 250.644, 128.344 279.004, 152 292.008 C 175.116 304.715, 213.299 324.069, 225.814 329.423 C 232.931 332.467, 234.044 332.715, 233.545 331.142 C 231.513 324.738, 229.928 311.843, 229.931 301.730 C 229.935 288.891, 231.984 277.922, 236.417 267.013 C 238.683 261.434, 238.752 260.848, 237.200 260.309 C 212.419 251.713, 164.017 227.178, 102.194 191.876 C 84.975 182.044, 70.743 174, 70.567 174 C 70.391 174, 69.286 176.232, 68.113 178.959 M 346.906 236.478 L 272.312 273.846 270.250 278.673 C 266.862 286.599, 265.804 291.962, 265.749 301.476 C 265.684 312.732, 266.699 319, 268.586 319 C 269.362 319, 304.872 301.564, 347.498 280.253 L 425 241.506 425 220.253 C 425 200.658, 424.863 199.004, 423.250 199.055 C 422.288 199.085, 387.933 215.926, 346.906 236.478 M 0 408 L 0 512 256.031 512 C 459.936 512, 512.160 511.746, 512.539 510.750 C 512.801 510.063, 512.899 463.033, 512.758 406.241 L 512.500 302.982 507.403 306.415 C 504.599 308.303, 488.849 318.267, 472.403 328.557 C 359.529 399.180, 285.070 440.794, 260.750 446.847 C 257.095 447.756, 254.905 447.756, 251.250 446.847 C 227.197 440.860, 155.427 400.845, 43.500 331.015 C 26.450 320.378, 9.937 309.948, 6.805 307.837 C 3.673 305.727, 0.860 304, 0.555 304 C 0.250 304, 0 350.800, 0 408 M 0.482 408 C 0.482 465.475, 0.602 488.987, 0.750 460.250 C 0.897 431.512, 0.897 384.487, 0.750 355.750 C 0.602 327.012, 0.482 350.525, 0.482 408" stroke="none" fill="#557a95" fill-rule="evenodd"/></svg>